<svg width="217" height="60" viewBox="0 0 217 60" fill="none" xmlns="http://www.w3.org/2000/svg">
<g clip-path="url(#clip0_66_6)">
<path d="M39.8948 59.3879H20.2811L30.9252 8.95117H50.5389L39.8948 59.3879Z" fill="white"/>
<path d="M78.4165 59.3879H58.8027L69.4468 8.95117H89.0605L78.4165 59.3879Z" fill="white"/>
<path d="M106.602 59.3879H86.988L97.6321 8.95117H117.246L106.602 59.3879Z" fill="white"/>
<path d="M152.544 59.3879H132.93L143.574 8.95117H163.188L152.544 59.3879Z" fill="white"/>
<path d="M58.1852 23.5488H0.174438L3.67362 8.95117H61.6844L58.1852 23.5488Z" fill="white"/>
<path d="M124.649 59.3879H87.6332L91.1324 44.7903H128.148L124.649 59.3879Z" fill="white"/>
<path d="M212.675 15.2941H172.16L175.66 0.696396H216.174L212.675 15.2941Z" fill="white"/>
<path d="M178.831 38.3218H141.815L145.314 23.7242H182.33L178.831 38.3218Z" fill="white"/>
<path d="M170.063 59.6964H133.047L136.546 45.0987H173.562L170.063 59.6964Z" fill="white"/>
</g>
<defs>
<clipPath id="clip0_66_6">
<rect width="216" height="59" fill="white" transform="translate(0.174438 0.696396)"/>
</clipPath>
</defs>
</svg>
